<?xml version="1.0" standalone="no"?>
<!DOCTYPE svg PUBLIC "-//W3C//DTD SVG 20010904//EN"
 "http://www.w3.org/TR/2001/REC-SVG-20010904/DTD/svg10.dtd">
<svg version="1.0" xmlns="http://www.w3.org/2000/svg"
 width="960.000000pt" height="960.000000pt" viewBox="0 0 960.000000 960.000000"
 preserveAspectRatio="xMidYMid meet">
<metadata>
Created by potrace 1.11, written by Peter Selinger 2001-2013
</metadata>
<g transform="translate(0.000000,960.000000) scale(0.100000,-0.100000)"
fill="#000000" stroke="none">
<path d="M1887 6413 c-1 -1 -114 -4 -252 -8 -137 -4 -281 -8 -320 -10 -205 -9
-415 -22 -510 -30 -27 -2 -81 -7 -120 -10 -38 -3 -86 -7 -105 -10 -19 -3 -64
-7 -100 -10 -36 -3 -81 -8 -100 -10 -19 -3 -55 -7 -80 -10 -62 -7 -132 -17
-150 -20 -8 -2 -45 -6 -82 -10 l-67 -7 4 -107 c2 -58 7 -171 11 -251 4 -80 7
-157 8 -172 1 -23 11 -32 65 -59 71 -36 137 -97 176 -162 26 -45 67 -192 79
-277 7 -56 10 -74 91 -473 2 -10 6 -26 9 -35 3 -9 7 -28 10 -42 2 -14 9 -45
16 -70 7 -25 13 -52 15 -60 7 -37 88 -297 116 -372 101 -275 221 -482 351
-604 60 -57 203 -164 218 -164 5 0 10 -3 10 -7 0 -5 10 -13 23 -19 12 -6 63
-31 112 -56 141 -71 308 -120 500 -145 108 -14 638 -5 665 12 3 2 30 6 60 9
70 9 243 39 278 50 9 3 28 7 42 10 70 13 218 59 330 101 90 34 269 127 342
178 130 90 167 125 307 292 83 99 236 338 327 509 110 208 226 517 260 691 2
11 6 31 9 45 4 14 8 35 11 48 23 111 97 211 191 258 53 26 67 29 163 29 94 0
111 -3 161 -28 30 -15 72 -44 93 -64 35 -36 96 -146 96 -175 0 -23 67 -281 95
-363 132 -393 405 -854 652 -1103 173 -173 452 -316 793 -406 106 -27 297 -65
368 -72 26 -2 58 -6 72 -9 67 -13 204 -19 390 -19 231 0 290 5 445 38 258 55
560 222 721 399 141 156 266 402 366 722 29 93 66 222 72 250 4 17 12 52 32
140 3 11 7 31 10 45 3 14 9 41 14 60 5 19 12 49 14 65 3 17 8 41 11 55 14 65
35 180 41 225 3 28 8 53 10 56 2 4 6 24 9 45 30 199 108 324 247 393 34 17 63
37 64 44 3 20 16 370 18 462 l1 80 -75 12 c-41 6 -106 14 -145 18 -38 4 -72 9
-75 10 -3 2 -42 7 -85 10 -44 4 -87 9 -96 10 -9 2 -56 6 -105 10 -49 4 -96 8
-104 10 -8 2 -55 6 -105 9 -49 4 -117 9 -150 11 -533 40 -1471 50 -1750 19
-27 -3 -81 -9 -120 -14 -38 -5 -90 -12 -115 -15 -25 -4 -56 -8 -70 -10 -14 -2
-56 -9 -95 -15 -381 -59 -692 -144 -905 -247 -116 -56 -219 -98 -262 -107 -13
-3 -34 -8 -48 -10 -64 -14 -80 -17 -150 -23 -102 -9 -619 -8 -700 2 -86 10
-90 10 -125 18 -16 4 -39 9 -50 11 -38 8 -150 54 -265 109 -150 72 -403 155
-524 172 -16 3 -43 9 -60 14 -17 6 -48 12 -69 16 -21 3 -71 12 -110 20 -40 8
-85 16 -102 19 -16 2 -50 8 -75 12 -25 4 -49 8 -55 9 -24 2 -150 19 -155 20
-3 1 -39 5 -80 9 -41 4 -87 9 -101 12 -76 12 -213 17 -482 18 -164 0 -299 0
-300 -1z m1068 -287 c39 -3 86 -8 105 -11 65 -9 125 -17 148 -20 92 -13 314
-82 401 -125 235 -117 371 -287 407 -510 2 -14 6 -34 8 -45 25 -115 25 -335 1
-515 -23 -178 -135 -508 -209 -621 -14 -21 -26 -41 -26 -44 0 -10 -90 -145
-139 -210 -74 -97 -232 -248 -313 -298 -154 -97 -446 -201 -668 -241 -14 -2
-36 -7 -50 -10 -14 -3 -43 -7 -65 -10 -22 -3 -49 -7 -60 -10 -136 -28 -540
-26 -688 3 -29 6 -63 13 -77 15 -103 19 -284 88 -365 139 -128 80 -219 171
-353 352 -81 109 -224 402 -246 505 -3 14 -15 59 -26 100 -20 74 -25 98 -35
163 -3 17 -7 43 -10 57 -2 14 -7 49 -10 79 -4 30 -8 63 -10 73 -11 55 -20 219
-19 343 1 167 22 259 86 375 40 72 137 180 208 232 83 60 274 146 385 174 17
4 32 8 35 9 44 12 113 24 180 31 30 3 66 7 80 10 14 2 81 7 150 10 69 4 126 7
127 8 6 4 991 -3 1048 -8z m4885 0 c58 -3 116 -8 130 -10 14 -3 52 -7 85 -11
33 -3 67 -7 75 -10 8 -2 26 -6 40 -9 64 -11 170 -41 245 -71 297 -116 482
-323 523 -585 9 -60 8 -286 -2 -385 -5 -44 -10 -91 -11 -105 -2 -24 -18 -139
-20 -150 -1 -3 -5 -27 -10 -55 -11 -74 -12 -76 -25 -125 -7 -25 -14 -56 -17
-69 -7 -40 -64 -201 -97 -276 -73 -167 -225 -394 -341 -511 -49 -50 -155 -134
-169 -134 -3 0 -25 -12 -47 -26 -42 -26 -200 -91 -241 -98 -13 -3 -24 -5 -25
-7 -4 -2 -8 -3 -73 -17 -136 -29 -202 -35 -390 -35 -157 -1 -290 6 -345 17
-11 2 -42 6 -70 10 -273 37 -631 156 -798 265 -83 54 -218 184 -299 286 -187
238 -314 519 -373 825 -3 14 -7 35 -9 48 -22 106 -26 344 -9 467 27 190 67
304 138 394 27 34 115 120 140 136 56 36 111 69 115 70 3 1 20 9 37 18 69 37
241 92 353 114 14 3 32 6 40 8 8 2 40 6 70 10 30 4 66 9 80 11 14 3 72 7 130
10 58 3 106 7 107 8 5 4 975 -3 1063 -8z m-7180 -128 c3 -4 6 -27 5 -50 l0
-43 -210 0 -210 0 -2 50 -1 50 206 0 c114 0 209 -3 212 -7z m8695 -43 l0 -50
-200 -1 c-110 0 -205 1 -211 3 -8 3 -12 65 -5 93 0 3 94 5 209 5 l207 0 0 -50z"/>
</g>
</svg>
